<?xml version="1.0" encoding="utf-8"?>
<!-- Generator: Adobe Illustrator 16.0.0, SVG Export Plug-In . SVG Version: 6.00 Build 0)  -->
<!DOCTYPE svg PUBLIC "-//W3C//DTD SVG 1.1//EN" "http://www.w3.org/Graphics/SVG/1.1/DTD/svg11.dtd">
<svg version="1.1" id="Layer_1" xmlns="http://www.w3.org/2000/svg" xmlns:xlink="http://www.w3.org/1999/xlink" x="0px" y="0px"
	 width="1157.562px" height="262.136px" viewBox="100.62 252.895 1157.562 262.136"
	 enable-background="new 100.62 252.895 1157.562 262.136" xml:space="preserve">
<g>
	<g opacity="0.5">
		<path fill="#0A3551" d="M350.046,472.792v1.522h-4.059v-1.522c0-0.508-0.254-1.015-0.634-1.396s-0.888-0.634-1.396-0.634h-24.354
			c-0.507,0-1.015,0.253-1.396,0.634s-0.634,0.888-0.634,1.396v24.354c0,0.507,0.254,1.015,0.634,1.396
			c0.38,0.38,0.888,0.634,1.396,0.634h24.354c0.508,0,1.015-0.254,1.396-0.634c0.38-0.381,0.634-0.889,0.634-1.396v-9.006h-9.006
			v-4.187h13.192v13.192c0,1.648-0.634,3.171-1.776,4.312s-2.664,1.775-4.313,1.775h-24.354c-1.648,0-3.171-0.634-4.312-1.775
			s-1.776-2.664-1.776-4.312v-24.354c0-1.649,0.634-3.171,1.776-4.312s2.664-1.776,4.312-1.776h24.228
			c1.649,0,3.171,0.635,4.313,1.776C349.412,469.748,350.046,471.143,350.046,472.792z"/>
		<path fill="#0A3551" d="M360.447,464.166h4.186v32.98c0,0.507,0.254,1.015,0.635,1.396c0.38,0.38,0.888,0.634,1.395,0.634h4.947
			v4.186h-4.947c-1.649,0-3.171-0.634-4.313-1.775s-1.775-2.664-1.775-4.312v-33.107H360.447z"/>
		<path fill="#0A3551" d="M386.451,473.807h17.631c1.775,0,3.171,0.635,4.439,1.775c1.142,1.143,1.776,2.664,1.776,4.313v17.251
			c0,1.648-0.635,3.171-1.776,4.312s-2.664,1.775-4.439,1.775h-17.631c-1.649,0-3.171-0.634-4.313-1.775s-1.776-2.664-1.776-4.312
			v-17.124c0-1.649,0.634-3.172,1.776-4.313C383.279,474.441,384.802,473.807,386.451,473.807z M404.082,477.992h-17.631
			c-0.507,0-1.015,0.254-1.396,0.635s-0.634,0.888-0.634,1.396v17.124c0,0.507,0.254,1.015,0.634,1.396
			c0.38,0.38,0.888,0.634,1.396,0.634h17.631c0.508,0,1.015-0.254,1.396-0.634c0.38-0.381,0.634-0.889,0.634-1.396v-17.124
			c0-0.508-0.254-1.015-0.634-1.396C405.097,478.246,404.59,477.992,404.082,477.992z"/>
		<path fill="#0A3551" d="M444.546,473.807c1.648,0,3.171,0.635,4.312,1.775c1.142,1.143,1.776,2.664,1.776,4.313v17.251
			c0,1.648-0.635,3.171-1.776,4.312s-2.664,1.775-4.312,1.775h-23.847v-39.068h4.186v9.641H444.546z M446.448,497.146v-17.124
			c0-0.508-0.254-1.015-0.634-1.396c-0.381-0.381-0.889-0.635-1.396-0.635h-17.632c-0.507,0-1.015,0.254-1.395,0.635
			c-0.381,0.381-0.635,0.888-0.635,1.396v17.124c0,0.507,0.254,1.015,0.635,1.396c0.38,0.38,0.888,0.634,1.395,0.634h17.632
			c0.507,0,1.015-0.254,1.396-0.634C446.321,498.161,446.448,497.653,446.448,497.146z"/>
		<path fill="#0A3551" d="M483.233,473.807c1.776,0,3.171,0.635,4.439,1.775c1.142,1.143,1.776,2.664,1.776,4.313v23.339h-23.847
			c-1.649,0-3.172-0.634-4.313-1.775s-1.775-2.664-1.775-4.312v-10.655h25.75v-6.469c0-0.508-0.254-1.015-0.635-1.396
			s-0.888-0.635-1.396-0.635h-23.847v-4.186H483.233z M485.264,499.176v-8.499h-21.564v6.47c0,0.507,0.254,1.015,0.635,1.396
			c0.38,0.38,0.888,0.634,1.395,0.634H485.264z"/>
		<path fill="#0A3551" d="M499.216,464.166h4.187v32.98c0,0.507,0.254,1.015,0.634,1.396c0.381,0.38,0.888,0.634,1.396,0.634h4.947
			v4.186h-4.947c-1.648,0-3.171-0.634-4.312-1.775s-1.776-2.664-1.776-4.312v-33.107H499.216z"/>
		<path fill="#0A3551" d="M559.468,484.842l15.222-18.012h5.581v36.531h-4.059v-31.838l-16.744,19.788l-16.743-19.788v31.838h-4.06
			v-36.658h5.581L559.468,484.842z"/>
		<path fill="#0A3551" d="M596.761,473.807h17.631c1.776,0,3.172,0.635,4.44,1.775c1.142,1.143,1.775,2.664,1.775,4.313v17.251
			c0,1.648-0.634,3.171-1.775,4.312s-2.664,1.775-4.44,1.775h-17.631c-1.649,0-3.171-0.634-4.313-1.775
			c-1.141-1.142-1.775-2.664-1.775-4.312v-17.124c0-1.649,0.635-3.172,1.775-4.313C593.59,474.441,595.111,473.807,596.761,473.807z
			 M614.392,477.992h-17.631c-0.508,0-1.015,0.254-1.396,0.635s-0.635,0.888-0.635,1.396v17.124c0,0.507,0.254,1.015,0.635,1.396
			c0.381,0.38,0.888,0.634,1.396,0.634h17.631c0.508,0,1.016-0.254,1.396-0.634c0.381-0.381,0.635-0.889,0.635-1.396v-17.124
			c0-0.508-0.254-1.015-0.635-1.396C615.407,478.246,614.899,477.992,614.392,477.992z"/>
		<path fill="#0A3551" d="M653.968,473.807c1.649,0,3.171,0.635,4.312,1.775c1.142,1.143,1.776,2.664,1.776,4.313v23.339h-4.06
			v-23.339c0-0.508-0.253-1.015-0.634-1.396s-0.888-0.635-1.396-0.635h-17.632c-0.507,0-1.015,0.254-1.395,0.635
			c-0.381,0.381-0.635,0.888-0.635,1.396v23.339h-4.186v-29.428H653.968L653.968,473.807z"/>
		<path fill="#0A3551" d="M694.178,473.807c1.776,0,3.171,0.635,4.439,1.775c1.142,1.143,1.776,2.664,1.776,4.313v10.654h-25.877
			v6.47c0,0.507,0.254,1.015,0.635,1.396c0.38,0.38,0.888,0.634,1.395,0.634h23.848v4.186h-23.847c-1.649,0-3.172-0.634-4.313-1.775
			s-1.775-2.664-1.775-4.312v-17.124c0-1.649,0.634-3.172,1.775-4.313s2.664-1.775,4.313-1.775h17.631V473.807z M674.517,486.491
			h21.563v-6.469c0-0.508-0.253-1.015-0.634-1.396s-0.888-0.635-1.396-0.635H676.42c-0.508,0-1.016,0.254-1.396,0.635
			c-0.381,0.381-0.635,0.888-0.635,1.396v6.469H674.517z"/>
		<path fill="#0A3551" d="M740.096,508.816c0,1.775-0.634,3.171-1.775,4.439c-1.142,1.142-2.664,1.775-4.312,1.775h-18.393v-4.186
			h18.393c0.507,0,1.015-0.254,1.395-0.635c0.381-0.38,0.635-0.888,0.635-1.395v-5.455h-19.661c-1.649,0-3.171-0.634-4.312-1.775
			s-1.776-2.664-1.776-4.312v-23.213h4.186v23.086c0,0.507,0.254,1.015,0.635,1.396c0.381,0.38,0.888,0.634,1.396,0.634h17.631
			c0.508,0,1.015-0.254,1.396-0.634c0.381-0.381,0.635-0.889,0.635-1.396v-23.213h4.186v34.883H740.096z"/>
		<path fill="#0A3551" d="M767.748,466.703h36.531v4.06h-16.235v32.472h-4.06v-32.472h-16.236V466.703z"/>
		<path fill="#0A3551" d="M819.121,473.807h16.489v4.186h-16.489c-0.508,0-1.016,0.254-1.396,0.635
			c-0.381,0.381-0.634,0.888-0.634,1.396v23.339h-4.187v-23.339c0-1.649,0.634-3.172,1.776-4.313
			C815.949,474.441,817.345,473.807,819.121,473.807z"/>
		<path fill="#0A3551" d="M867.829,473.807c1.776,0,3.172,0.635,4.44,1.775c1.141,1.143,1.775,2.664,1.775,4.313v23.339h-23.974
			c-1.649,0-3.171-0.634-4.313-1.775c-1.141-1.142-1.775-2.664-1.775-4.312v-10.655h25.75v-6.469c0-0.508-0.254-1.015-0.635-1.396
			s-0.888-0.635-1.395-0.635h-23.848v-4.186H867.829z M869.732,499.176v-8.499h-21.564v6.47c0,0.507,0.254,1.015,0.635,1.396
			c0.381,0.38,0.888,0.634,1.396,0.634H869.732z"/>
		<path fill="#0A3551" d="M907.405,473.807c1.649,0,3.171,0.635,4.312,1.775c1.142,1.143,1.776,2.664,1.776,4.313v23.339h-4.186
			v-23.339c0-0.508-0.254-1.015-0.635-1.396s-0.888-0.635-1.396-0.635h-17.632c-0.507,0-1.014,0.254-1.395,0.635
			s-0.635,0.888-0.635,1.396v23.339h-4.186v-29.428H907.405L907.405,473.807z"/>
		<path fill="#0A3551" d="M953.704,480.022v0.38h-4.187v-0.38c0-0.508-0.253-1.015-0.634-1.396s-0.888-0.635-1.396-0.635h-17.631
			c-0.508,0-1.016,0.254-1.396,0.635c-0.381,0.381-0.635,0.888-0.635,1.396v4.566c0,0.507,0.254,1.015,0.635,1.395
			c0.38,0.381,0.888,0.635,1.396,0.635h17.631c1.776,0,3.172,0.634,4.439,1.775c1.143,1.142,1.776,2.664,1.776,4.313v4.566
			c0,1.648-0.634,3.171-1.776,4.312c-1.142,1.142-2.663,1.775-4.439,1.775h-17.631c-1.649,0-3.172-0.634-4.313-1.775
			s-1.775-2.664-1.775-4.312v-0.381h4.186v0.381c0,0.507,0.254,1.015,0.634,1.395c0.381,0.381,0.889,0.635,1.396,0.635h17.632
			c0.508,0,1.015-0.254,1.396-0.635c0.38-0.38,0.634-0.888,0.634-1.395v-4.566c0-0.508-0.254-1.015-0.634-1.396
			c-0.381-0.381-0.888-0.635-1.396-0.635h-17.632c-1.648,0-3.171-0.634-4.312-1.775s-1.776-2.664-1.776-4.312v-4.566
			c0-1.649,0.635-3.172,1.776-4.313s2.664-1.775,4.312-1.775h17.632c1.775,0,3.171,0.634,4.439,1.775
			C953.069,476.851,953.704,478.246,953.704,480.022z"/>
		<path fill="#0A3551" d="M969.94,468.353c-0.508,0-1.015,0.254-1.396,0.634c-0.381,0.381-0.635,0.888-0.635,1.396v3.552h12.686
			v4.186H967.91v25.242h-4.186v-32.979c0-1.776,0.635-3.171,1.776-4.312s2.663-1.776,4.312-1.776h10.782v4.187H969.94V468.353z"/>
		<path fill="#0A3551" d="M1013.194,473.807c1.776,0,3.171,0.635,4.439,1.775c1.142,1.143,1.776,2.664,1.776,4.313v10.654h-25.877
			v6.47c0,0.507,0.254,1.015,0.635,1.396c0.38,0.38,0.888,0.634,1.395,0.634h23.848v4.186h-23.848c-1.648,0-3.171-0.634-4.312-1.775
			s-1.775-2.664-1.775-4.312v-17.124c0-1.649,0.634-3.172,1.775-4.313s2.664-1.775,4.312-1.775h17.632V473.807z M993.66,486.491
			h21.564v-6.469c0-0.508-0.254-1.015-0.635-1.396s-0.888-0.635-1.396-0.635h-17.632c-0.507,0-1.015,0.254-1.395,0.635
			c-0.381,0.381-0.635,0.888-0.635,1.396v6.469H993.66z"/>
		<path fill="#0A3551" d="M1035.52,473.807h16.49v4.186h-16.49c-0.508,0-1.015,0.254-1.396,0.635s-0.634,0.888-0.634,1.396v23.339
			h-4.187v-23.339c0-1.649,0.635-3.172,1.776-4.313C1032.475,474.441,1033.87,473.807,1035.52,473.807z"/>
	</g>
	<path fill="#066895" d="M502.007,318.548h76.614v9.387h-67.101v27.779h53.909v9.513h-53.909v37.166h-9.387v-83.845H502.007z"/>
	<path fill="#066895" d="M605.64,318.548h55.938c3.933,0,7.23,1.396,9.895,4.059c2.664,2.664,4.059,5.962,4.059,9.895v55.938
		c0,3.933-1.395,7.23-4.059,9.895c-2.664,2.663-5.962,4.059-9.895,4.059H605.64c-3.933,0-7.23-1.396-9.894-4.059
		c-2.664-2.664-4.06-5.962-4.06-9.895v-55.938c0-3.933,1.396-7.23,4.06-9.895C598.409,319.943,601.707,318.548,605.64,318.548z
		 M605.64,393.006h55.938c1.269,0,2.283-0.507,3.172-1.396c0.888-0.888,1.395-1.902,1.395-3.171v-55.938
		c0-1.269-0.507-2.283-1.395-3.172c-0.889-0.888-1.903-1.395-3.172-1.395H605.64c-1.269,0-2.283,0.507-3.171,1.395
		c-0.889,0.889-1.396,1.903-1.396,3.172v55.938c0,1.269,0.507,2.283,1.396,3.171C603.229,392.626,604.371,393.006,605.64,393.006z"
		/>
	<path fill="#066895" d="M777.77,332.754v24.608c0,3.933-1.396,7.23-4.06,9.895c-2.663,2.663-5.962,4.059-9.894,4.059h-12.812
		l26.257,31.204h-12.431l-26.257-31.204h-30.57c-0.761,0-2.156-0.127-4.566-0.508v31.712h-9.387v-83.718h69.766
		c3.932,0,7.23,1.395,9.894,4.059C776.501,325.524,777.77,328.822,777.77,332.754z M708.004,361.675h55.812
		c1.269,0,2.283-0.38,3.171-1.269c0.888-0.888,1.269-1.902,1.269-3.171v-24.607c0-1.269-0.381-2.283-1.269-3.172
		c-0.888-0.888-1.902-1.395-3.171-1.395h-55.812c-1.269,0-2.283,0.507-3.171,1.395c-0.888,0.889-1.396,1.903-1.396,3.172v24.607
		c0,1.269,0.508,2.283,1.396,3.171C705.594,361.295,706.735,361.675,708.004,361.675z"/>
	<path fill="#066895" d="M979.707,318.548h55.939c3.932,0,7.229,1.396,9.894,4.059c2.664,2.664,4.06,5.962,4.06,9.895v69.892h-9.387
		v-30.569h-64.945v30.569h-9.387v-69.892c0-3.933,1.396-7.23,4.06-9.895C972.477,319.943,975.775,318.548,979.707,318.548z
		 M975.141,362.437h64.945v-29.809c0-1.269-0.508-2.283-1.396-3.172c-0.888-0.888-1.902-1.395-3.171-1.395H979.58
		c-1.268,0-2.283,0.507-3.171,1.395c-0.888,0.889-1.396,1.903-1.396,3.172v29.809H975.141z"/>
	<path fill="#066895" d="M1152.344,332.754v24.608c0,3.933-1.395,7.23-4.059,9.895c-2.664,2.663-5.962,4.059-9.895,4.059h-12.811
		l26.257,31.204h-12.431l-26.258-31.204h-30.696c-0.761,0-2.156-0.127-4.566-0.508v31.712h-9.387v-83.718h69.892
		c3.933,0,7.23,1.395,9.895,4.059C1151.076,325.524,1152.344,328.822,1152.344,332.754z M1082.452,361.675h55.938
		c1.269,0,2.283-0.38,3.172-1.269c0.888-0.888,1.269-1.902,1.269-3.171v-24.607c0-1.269-0.381-2.283-1.269-3.172
		c-0.889-0.888-1.903-1.395-3.172-1.395h-55.938c-1.269,0-2.283,0.507-3.171,1.395c-0.888,0.889-1.396,1.903-1.396,3.172v24.607
		c0,1.269,0.508,2.283,1.396,3.171C1080.169,361.295,1081.311,361.675,1082.452,361.675z"/>
	<path fill="#066895" d="M1170.736,318.548h69.893c3.932,0,7.229,1.396,9.894,4.059c2.664,2.664,4.06,5.962,4.06,9.895v55.938
		c0,3.933-1.396,7.23-4.06,9.895c-2.664,2.663-5.962,4.059-9.894,4.059h-69.893V318.548z M1245.195,388.439v-55.938
		c0-1.269-0.508-2.283-1.396-3.171c-0.888-0.889-1.902-1.396-3.171-1.396h-55.939c-1.268,0-2.283,0.507-3.171,1.396
		c-0.888,0.888-1.396,1.902-1.396,3.171v55.938c0,1.269,0.508,2.283,1.396,3.171c0.888,0.889,1.903,1.396,3.171,1.396h55.939
		c1.269,0,2.283-0.507,3.171-1.396C1244.688,390.85,1245.195,389.708,1245.195,388.439z"/>
	<g>
		<g>
			<path fill="#F27327" d="M104.219,318.675h69.892c3.933,0,7.23,1.396,9.894,4.059c2.664,2.664,4.059,5.962,4.059,9.895v24.607
				c0,3.933-1.395,7.23-4.059,9.895c-2.664,2.663-5.961,4.059-9.894,4.059h-55.938c-0.761,0-2.157-0.127-4.567-0.507v31.711h-9.386
				V318.675z M178.678,357.235v-24.607c0-1.269-0.508-2.283-1.396-3.172c-0.888-0.888-1.903-1.395-3.171-1.395h-55.938
				c-1.269,0-2.284,0.507-3.171,1.395c-0.888,0.889-1.396,1.903-1.396,3.172v24.607c0,1.269,0.508,2.283,1.396,3.171
				c0.888,0.889,1.903,1.269,3.171,1.269h55.938c1.269,0,2.284-0.38,3.171-1.269C178.17,359.519,178.678,358.504,178.678,357.235z"
				/>
			<path fill="#F27327" d="M278.886,318.548v9.387h-67.102v27.779h53.909v9.513h-53.909v27.779h67.102v9.387h-76.488v-83.845
				H278.886z"/>
			<path fill="#F27327" d="M380.489,332.628v3.298h-9.387v-3.298c0-1.269-0.507-2.283-1.395-3.172
				c-0.888-0.888-1.903-1.395-3.171-1.395h-55.939c-1.269,0-2.283,0.507-3.171,1.395c-0.888,0.889-1.396,1.903-1.396,3.172v18.646
				c0,1.269,0.507,2.283,1.396,3.172c0.888,0.888,1.902,1.269,3.171,1.269h55.939c3.932,0,7.23,1.395,9.894,4.059
				c2.664,2.664,4.059,5.962,4.059,9.894v18.773c0,3.933-1.395,7.23-4.059,9.895c-2.664,2.663-5.962,4.059-9.894,4.059h-55.939
				c-3.932,0-7.23-1.396-9.894-4.059c-2.664-2.664-4.06-5.962-4.06-9.895v-3.298h9.387v3.298c0,1.269,0.507,2.283,1.396,3.171
				c0.888,0.889,1.902,1.396,3.171,1.396h55.939c1.269,0,2.283-0.507,3.171-1.396c0.888-0.888,1.395-1.902,1.395-3.171v-18.773
				c0-1.268-0.507-2.283-1.395-3.171c-0.888-0.888-1.903-1.269-3.171-1.269h-55.939c-3.932,0-7.23-1.395-9.894-4.059
				c-2.664-2.664-4.06-5.962-4.06-9.895v-18.772c0-3.933,1.396-7.23,4.06-9.895c2.664-2.663,5.961-4.059,9.894-4.059h55.939
				c3.932,0,7.23,1.396,9.894,4.059C379.094,325.397,380.489,328.695,380.489,332.628z"/>
			<path fill="#F27327" d="M412.454,318.548h55.938c3.933,0,7.23,1.396,9.895,4.059c2.663,2.664,4.059,5.962,4.059,9.895v55.938
				c0,3.933-1.396,7.23-4.059,9.895c-2.664,2.663-5.962,4.059-9.895,4.059h-55.938c-3.933,0-7.23-1.396-9.895-4.059
				c-2.663-2.664-4.059-5.962-4.059-9.895v-55.938c0-3.933,1.396-7.23,4.059-9.895C405.351,319.943,408.648,318.548,412.454,318.548
				z M412.454,393.006h55.938c1.269,0,2.283-0.507,3.172-1.396c0.888-0.888,1.395-1.902,1.395-3.171v-55.938
				c0-1.269-0.507-2.283-1.395-3.172c-0.889-0.888-1.903-1.395-3.172-1.395h-55.938c-1.269,0-2.283,0.507-3.171,1.395
				c-0.889,0.889-1.396,1.903-1.396,3.172v55.938c0,1.269,0.507,2.283,1.396,3.171C410.171,392.626,411.186,393.006,412.454,393.006
				z"/>
		</g>
	</g>
	<path fill="#F27327" d="M925.037,338.082l-103.126,62.027c-9.767,6.089-22.578-0.888-22.578-12.558V267.683
		c0-11.543,12.685-18.646,22.578-12.558l103.126,62.027C933.028,322.1,933.028,333.389,925.037,338.082z"/>
	<path opacity="0.5" fill="#FEE740" enable-background="new    " d="M945.332,380.702l-103.125,62.027
		c-9.768,6.089-22.579-0.888-22.579-12.558V310.303c0-11.543,12.685-18.646,22.579-12.558l103.125,62.027
		C953.323,364.72,953.323,375.882,945.332,380.702z"/>
</g>
</svg>
